<?xml version="1.0" standalone="no"?>
<!DOCTYPE svg PUBLIC "-//W3C//DTD SVG 20010904//EN"
 "http://www.w3.org/TR/2001/REC-SVG-20010904/DTD/svg10.dtd">
<svg version="1.0" xmlns="http://www.w3.org/2000/svg"
 width="920.000000pt" height="894.000000pt" viewBox="0 0 920.000000 894.000000"
 preserveAspectRatio="xMidYMid meet">

<g transform="translate(0.000000,894.000000) scale(0.100000,-0.100000)"
fill="#000000" stroke="none">
<path d="M5905 8916 c-88 -13 -182 -29 -210 -36 -349 -85 -659 -258 -945 -527
-230 -216 -441 -472 -645 -780 -38 -57 -73 -103 -79 -103 -6 0 -65 18 -131 39
-121 41 -234 76 -335 104 -30 9 -147 33 -260 53 -186 34 -221 37 -375 37 -404
-2 -719 -67 -1095 -228 -344 -146 -681 -380 -925 -641 -187 -200 -260 -296
-393 -521 -167 -284 -271 -651 -286 -1013 -6 -152 10 -224 68 -303 29 -39 77
-66 186 -102 l95 -32 3 -78 3 -78 -108 7 c-59 3 -154 9 -211 13 l-102 6 0 -72
c0 -70 1 -72 31 -89 17 -9 45 -27 63 -39 17 -12 45 -28 61 -36 17 -8 44 -26
61 -40 18 -15 35 -27 38 -27 8 0 72 -47 108 -79 16 -14 28 -33 28 -43 0 -60
-91 -188 -150 -212 -48 -19 -67 -47 -82 -118 -20 -93 14 -144 142 -212 30 -16
70 -45 87 -64 l33 -34 -30 -28 c-34 -32 -60 -86 -60 -125 0 -27 25 -95 38
-105 5 -3 21 -27 37 -55 15 -27 41 -63 56 -80 15 -16 43 -48 63 -70 19 -22 47
-69 62 -105 60 -150 81 -175 208 -239 149 -77 181 -83 456 -88 234 -5 511 9
760 37 234 26 298 32 454 40 94 5 172 8 174 6 12 -13 -64 -374 -99 -471 -10
-27 -23 -70 -29 -94 -28 -106 -256 -550 -356 -693 -18 -25 -43 -66 -55 -90
-67 -131 -244 -357 -335 -428 -40 -31 -200 -163 -274 -226 -30 -26 -89 -79
-130 -118 -136 -127 -234 -208 -320 -265 -47 -30 -99 -69 -116 -86 -101 -98
-46 -201 141 -263 108 -36 149 -44 375 -78 164 -25 198 -26 555 -27 l380 -1
283 37 c390 52 522 81 884 198 230 74 452 176 713 324 215 123 431 282 564
418 l63 65 -78 45 c-376 216 -651 432 -798 627 -100 131 -199 321 -240 455
-56 189 -59 473 -6 635 10 30 28 86 40 123 32 101 183 401 285 567 105 171
265 399 345 490 31 36 62 76 69 88 7 13 39 61 72 107 146 205 320 634 410
1015 40 170 41 181 46 398 5 199 3 239 -17 365 -26 167 -111 425 -184 562 -9
17 -16 34 -16 38 0 14 -141 265 -156 278 -12 10 -4 16 53 35 62 21 117 43 333
134 41 17 91 37 111 45 19 7 60 25 89 40 29 15 70 33 89 40 20 8 74 30 121 50
80 34 127 53 308 121 40 15 75 25 77 22 8 -8 -90 -286 -133 -380 -22 -47 -45
-103 -52 -125 -7 -21 -41 -101 -75 -178 -145 -325 -193 -447 -263 -670 -91
-289 -123 -449 -142 -725 -22 -307 -9 -487 54 -740 50 -198 84 -275 215 -490
177 -292 426 -506 758 -655 142 -63 401 -146 528 -169 283 -51 664 -62 895
-26 311 48 602 190 787 383 177 185 269 337 353 583 92 271 131 657 100 1002
-9 98 -15 126 -62 287 -36 124 -125 268 -242 394 -51 54 -234 178 -301 204
-65 25 -220 34 -311 18 -232 -41 -475 -181 -708 -409 -192 -188 -263 -301
-495 -787 -103 -214 -187 -425 -200 -502 -5 -27 -3 -52 5 -71 11 -27 91 -102
109 -102 5 0 16 -6 24 -13 21 -18 155 -69 206 -78 84 -16 165 22 263 124 68
71 185 160 240 180 23 9 42 13 42 9 0 -15 -59 -124 -87 -160 -48 -63 -126
-142 -147 -148 -12 -4 -28 -12 -36 -18 -45 -36 -213 -63 -286 -46 -77 18 -202
70 -258 107 -192 129 -343 372 -348 563 -5 167 70 366 208 557 36 48 76 104
89 123 14 19 49 65 78 102 28 36 81 105 117 153 36 47 90 117 120 155 30 38
80 101 110 140 30 39 75 95 100 123 25 29 73 87 105 130 99 130 113 147 152
192 72 81 230 295 268 362 8 16 35 60 60 98 24 39 44 76 45 83 0 7 18 48 40
92 22 43 44 96 49 117 5 21 18 61 29 88 58 145 102 349 102 472 0 279 -129
532 -375 733 -218 178 -539 337 -836 415 -375 99 -687 124 -984 81z m555 -231
c212 -27 387 -72 598 -156 147 -59 274 -121 322 -159 19 -15 53 -37 75 -48 61
-31 225 -197 267 -270 57 -100 81 -204 76 -332 -4 -92 -9 -116 -42 -199 -76
-192 -233 -485 -370 -691 -90 -135 -167 -244 -186 -265 -12 -13 -47 -59 -78
-103 -32 -44 -109 -145 -172 -224 -64 -78 -129 -160 -145 -181 -17 -21 -54
-68 -83 -105 -185 -236 -221 -283 -290 -382 -65 -94 -173 -291 -203 -373 -23
-60 -65 -223 -73 -282 -7 -52 17 -208 39 -260 103 -239 272 -436 516 -600 141
-95 246 -143 406 -185 73 -20 101 -22 250 -18 128 4 180 9 218 23 116 42 159
69 239 148 73 73 89 103 135 249 19 59 26 269 11 321 -14 51 -49 89 -99 106
-54 18 -150 13 -211 -10 -30 -11 -64 -23 -75 -27 -28 -8 -138 -73 -150 -88 -5
-7 -73 -51 -151 -97 -77 -46 -153 -92 -167 -102 l-27 -17 14 38 c88 247 335
669 564 964 97 124 130 159 241 257 120 107 206 162 315 202 76 29 98 33 150
29 167 -14 296 -151 411 -437 96 -237 87 -533 -24 -879 -93 -286 -230 -503
-452 -717 -183 -176 -323 -262 -544 -335 -231 -75 -288 -83 -560 -77 -218 5
-237 7 -375 40 -172 41 -229 63 -375 141 -179 97 -292 190 -414 341 -266 330
-393 742 -391 1265 1 130 32 353 71 500 19 73 149 441 164 464 8 12 25 52 39
90 15 38 35 83 45 100 11 17 33 65 50 106 16 41 51 125 77 185 52 123 81 197
129 330 18 50 37 101 42 115 64 156 78 313 36 380 -28 43 -100 98 -146 112
-67 20 -161 13 -282 -20 -135 -38 -260 -76 -299 -91 -16 -7 -84 -28 -150 -47
-67 -19 -146 -47 -176 -60 -30 -14 -116 -47 -190 -73 -74 -27 -158 -59 -185
-73 -28 -14 -106 -49 -175 -79 -69 -29 -144 -64 -168 -77 -46 -26 -112 -84
-112 -98 0 -5 19 -34 42 -64 49 -65 186 -285 238 -385 38 -72 55 -137 85 -338
14 -89 16 -163 13 -410 -5 -320 -10 -366 -65 -562 -57 -207 -74 -253 -162
-451 -23 -50 -41 -95 -41 -100 0 -5 -21 -45 -46 -89 -56 -96 -115 -201 -177
-314 -26 -46 -59 -99 -74 -118 -15 -19 -37 -48 -49 -64 -12 -16 -88 -103 -170
-193 -227 -249 -314 -379 -420 -621 -82 -189 -100 -609 -38 -905 20 -99 51
-205 74 -256 11 -26 20 -54 21 -63 0 -9 13 -41 29 -71 16 -30 39 -75 51 -100
40 -84 189 -297 247 -352 78 -76 165 -152 247 -218 38 -30 92 -76 120 -101 27
-26 69 -63 92 -84 l42 -37 -77 -51 c-84 -55 -122 -79 -195 -123 -26 -16 -67
-43 -90 -60 -23 -17 -65 -43 -94 -57 -28 -15 -54 -31 -57 -36 -10 -16 -208
-117 -266 -136 -30 -10 -75 -28 -100 -40 -50 -25 -217 -80 -360 -120 -52 -14
-133 -37 -180 -50 -95 -27 -127 -33 -535 -99 -49 -8 -142 -19 -205 -23 -150
-10 -769 -10 -841 0 l-57 8 57 52 c357 330 511 489 769 792 348 410 608 909
691 1325 80 406 37 621 -135 675 -52 16 -83 17 -323 11 -426 -11 -590 -23
-981 -71 -169 -20 -421 -20 -482 1 -73 25 -83 42 -80 138 2 90 -5 106 -58 121
-14 4 -40 16 -57 27 -27 16 -31 23 -23 38 21 39 11 77 -30 125 -22 25 -40 52
-40 60 0 16 26 28 60 29 24 1 25 4 24 61 0 33 -6 102 -14 153 l-14 92 -98 0
c-54 0 -98 3 -98 7 0 3 12 27 28 52 15 25 33 55 39 66 7 11 28 51 47 88 19 38
39 74 44 80 8 10 75 185 98 258 5 14 -14 18 -130 29 -116 11 -136 16 -136 30
0 14 20 19 135 30 l135 13 0 273 0 274 -41 30 c-23 16 -58 33 -78 36 -41 8
-168 -11 -188 -28 -7 -6 -16 -8 -20 -4 -11 10 16 292 38 406 22 113 104 357
141 421 60 101 220 324 299 414 113 130 457 468 534 526 234 175 636 373 982
483 131 42 368 90 521 107 97 10 128 9 225 -5 61 -10 130 -21 152 -26 22 -5
63 -12 90 -15 126 -16 204 -39 322 -96 67 -32 125 -59 129 -59 4 0 15 -7 24
-15 17 -15 115 -45 148 -45 22 0 344 328 416 424 134 178 390 445 501 524 96
68 275 186 342 226 221 131 513 239 748 276 140 22 184 23 325 5z"/>
</g>
</svg>
